<svg width="36" height="38" viewBox="0 0 36 38" fill="none" xmlns="http://www.w3.org/2000/svg">
<g id="Icon">
<path id="Oval" opacity="0.06" fill-rule="evenodd" clip-rule="evenodd" d="M18 37.0172C27.9411 37.0172 36 28.9438 36 18.9848C36 9.02586 27.9411 0.952515 18 0.952515C8.05887 0.952515 0 9.02586 0 18.9848C0 28.9438 8.05887 37.0172 18 37.0172Z" fill="#203C86"/>
<path id="Icon_2" d="M15.5977 24.7314L10.7051 19.8594C10.5684 19.7225 10.5 19.5464 10.5 19.3311C10.5 19.1159 10.5684 18.9398 10.7051 18.8028L11.7891 17.7462C11.9258 17.5897 12.0967 17.5115 12.3018 17.5115C12.5068 17.5115 12.6875 17.5897 12.8438 17.7462L16.125 21.0334L23.1562 13.9895C23.3125 13.833 23.4932 13.7547 23.6982 13.7547C23.9033 13.7547 24.0742 13.833 24.2109 13.9895L25.2949 15.0461C25.4316 15.183 25.5 15.3591 25.5 15.5744C25.5 15.7896 25.4316 15.9657 25.2949 16.1027L16.6523 24.7314C16.5156 24.888 16.3398 24.9662 16.125 24.9662C15.9102 24.9662 15.7344 24.888 15.5977 24.7314Z" fill="#203C86"/>
</g>
</svg>
