<svg width="36" height="38" viewBox="0 0 36 38" fill="none" xmlns="http://www.w3.org/2000/svg">
<g id="Icon">
<path id="Oval" opacity="0.16" fill-rule="evenodd" clip-rule="evenodd" d="M18 37.3994C27.9411 37.3994 36 29.3405 36 19.3994C36 9.45826 27.9411 1.39938 18 1.39938C8.05887 1.39938 0 9.45826 0 19.3994C0 29.3405 8.05887 37.3994 18 37.3994Z" fill="white"/>
<path id="Icon_2" d="M15.5976 25.1357L10.7051 20.2724C10.5684 20.1357 10.5 19.9599 10.5 19.7451C10.5 19.5302 10.5684 19.3544 10.7051 19.2177L11.7891 18.163C11.9258 18.0068 12.0967 17.9287 12.3018 17.9287C12.5068 17.9287 12.6875 18.0068 12.8437 18.163L16.125 21.4443L23.1562 14.4131C23.3125 14.2568 23.4931 14.1787 23.6982 14.1787C23.9033 14.1787 24.0742 14.2568 24.2109 14.4131L25.2949 15.4677C25.4316 15.6045 25.5 15.7802 25.5 15.9951C25.5 16.2099 25.4316 16.3857 25.2949 16.5224L16.6523 25.1357C16.5156 25.2919 16.3398 25.3701 16.125 25.3701C15.9101 25.3701 15.7344 25.2919 15.5976 25.1357Z" fill="white"/>
</g>
</svg>
